<?xml version="1.0" encoding="UTF-8"?>
<svg id="Layer_1" data-name="Layer 1" xmlns="http://www.w3.org/2000/svg" viewBox="0 0 51.9 51.9">
  <defs>
    <style>
      .cls-1 {
        fill: #23a9d5;
        stroke-width: 0px;
      }
    </style>
  </defs>
  <path class="cls-1" d="m49.3,51.9H10.9c-3.21,0-4.98,0-6.65-.85-1.47-.75-2.65-1.93-3.4-3.4-.85-1.67-.85-3.44-.85-6.65V2.59C0,1.16,1.16,0,2.59,0s2.59,1.16,2.59,2.59v38.41c0,2.25,0,3.74.28,4.29.25.49.64.88,1.13,1.13.56.28,2.04.28,4.29.28h38.41c1.43,0,2.59,1.16,2.59,2.59s-1.16,2.59-2.59,2.59Zm-36.33-15.57c-.59,0-1.17-.2-1.66-.6-1.1-.92-1.25-2.55-.33-3.65l12.98-15.57c.47-.56,1.15-.9,1.88-.93.73-.03,1.44.24,1.95.76l8.37,8.37,11.16-13.39c.92-1.1,2.55-1.25,3.65-.33,1.1.92,1.25,2.55.33,3.65l-12.98,15.57c-.47.56-1.15.9-1.88.93-.73.03-1.44-.24-1.95-.76l-8.37-8.37-11.16,13.39c-.51.62-1.25.93-1.99.93Z"/>
</svg>