<?xml version="1.0" encoding="utf-8"?>
<!-- Generator: Adobe Illustrator 28.0.0, SVG Export Plug-In . SVG Version: 6.00 Build 0)  -->
<svg version="1.1" id="Layer_1" xmlns="http://www.w3.org/2000/svg" xmlns:xlink="http://www.w3.org/1999/xlink" x="0px" y="0px"
	 viewBox="0 0 52.3 52.3" style="enable-background:new 0 0 52.3 52.3;" xml:space="preserve">
<style type="text/css">
	.st0{fill:#23A9D5;}
</style>
<path class="st0" d="M26.1,0C11.7,0,0,11.7,0,26.1s11.7,26.1,26.1,26.1s26.1-11.7,26.1-26.1S40.6,0,26.1,0z M34.7,37.9
	c0,0.5-0.5,0.9-0.9,0.9c-0.5,0.5-0.5,0.9-0.9,1.4c0,0.5-0.5,1.4-0.5,1.8l-1.8,5c-1.4,0.5-3.2,0.5-4.5,0.5v-3.2
	c0-1.4-0.9-3.6-2.3-5.4C23,38.3,23,37.4,23,36.5v-3.2c0-1.4-0.5-2.3-1.8-3.2c-1.8-0.9-3.6-1.8-5.4-2.7c-0.9-0.5-2.3-1.4-3.2-2.3l0,0
	c-0.9-0.9-1.4-1.4-1.8-2.3c-1.4-1.4-2.7-4.1-4.1-5.4C9,12.6,13.1,9,18,6.8l2.3,1.4c0.9,0.5,2.3-0.5,2.3-1.4V5.4c0.9,0,1.8,0,2.7-0.5
	l3.2,3.2c0.5,0.5,0.5,1.8,0,2.3l-0.5,0.5L27,12.2c-0.5,0-0.5,0.9,0,0.9l0.5,0.5c0.5,0.5,0.5,0.9,0,1.4l-0.9,0.9l-0.5,0.5h-1.4
	c0,0-0.5,0-0.5,0.5l-0.9,0.5c-0.5,0.5-0.5,0.5,0,0.9l1.4,3.6c0.5,0.5,0,1.4-0.9,1.4h-0.5H23l-0.9-1.4c-0.5-0.5-1.4-0.5-1.8-0.5
	l-3.2,1.4c-0.5,0-0.9,0.5-0.9,1.4c0,0.5,0.5,0.9,0.9,1.4H18c0.9,0.5,1.8,0.9,3.2,0.9c0.9,0,2.3,2.7,3.6,3.6h6.8
	c0.9,0,1.8,0.5,2.3,0.9l1.4,1.4c0.9,0.5,1.4,1.4,1.4,2.3C36.5,35.6,36,37,34.7,37.9z M44.2,27.9c-0.5,0-1.4-0.5-1.4-0.9l-2.3-2.7
	c-0.5-0.9-0.5-2.3,0-3.2l2.3-3.2c0.5-0.5,0.5-0.5,0.9-0.9l1.4-0.5c1.4,2.7,2.3,5.9,2.3,9.5c0,0.9,0,1.8,0,2.7L44.2,27.9z"/>
</svg>
