<?xml version="1.0" encoding="utf-8"?>
<!-- Generator: Adobe Illustrator 28.0.0, SVG Export Plug-In . SVG Version: 6.00 Build 0)  -->
<svg version="1.1" id="Layer_1" xmlns="http://www.w3.org/2000/svg" xmlns:xlink="http://www.w3.org/1999/xlink" x="0px" y="0px"
	 viewBox="0 0 51.9 51.9" style="enable-background:new 0 0 51.9 51.9;" xml:space="preserve">
<style type="text/css">
	.st0{fill:#4B5975;}
</style>
<path class="st0" d="M47.6,43.2H4.3c-2.4,0-4.3-1.9-4.3-4.3V13c0-2.4,1.9-4.3,4.3-4.3h43.2c2.4,0,4.3,1.9,4.3,4.3v25.9
	C51.9,41.3,50,43.2,47.6,43.2z M11.5,19.1v-3.6c0-0.6-0.5-1.1-1.1-1.1H6.8c-0.6,0-1.1,0.5-1.1,1.1v3.6c0,0.6,0.5,1.1,1.1,1.1h3.6
	C11,20.2,11.5,19.7,11.5,19.1z M20.2,19.1v-3.6c0-0.6-0.5-1.1-1.1-1.1h-3.6c-0.6,0-1.1,0.5-1.1,1.1v3.6c0,0.6,0.5,1.1,1.1,1.1h3.6
	C19.7,20.2,20.2,19.7,20.2,19.1z M28.8,19.1v-3.6c0-0.6-0.5-1.1-1.1-1.1h-3.6c-0.6,0-1.1,0.5-1.1,1.1v3.6c0,0.6,0.5,1.1,1.1,1.1h3.6
	C28.3,20.2,28.8,19.7,28.8,19.1z M37.5,19.1v-3.6c0-0.6-0.5-1.1-1.1-1.1h-3.6c-0.6,0-1.1,0.5-1.1,1.1v3.6c0,0.6,0.5,1.1,1.1,1.1h3.6
	C37,20.2,37.5,19.7,37.5,19.1z M46.1,19.1v-3.6c0-0.6-0.5-1.1-1.1-1.1h-3.6c-0.6,0-1.1,0.5-1.1,1.1v3.6c0,0.6,0.5,1.1,1.1,1.1H45
	C45.6,20.2,46.1,19.7,46.1,19.1z M15.9,27.7v-3.6c0-0.6-0.5-1.1-1.1-1.1h-3.6c-0.6,0-1.1,0.5-1.1,1.1v3.6c0,0.6,0.5,1.1,1.1,1.1h3.6
	C15.4,28.8,15.9,28.3,15.9,27.7z M24.5,27.7v-3.6c0-0.6-0.5-1.1-1.1-1.1h-3.6c-0.6,0-1.1,0.5-1.1,1.1v3.6c0,0.6,0.5,1.1,1.1,1.1h3.6
	C24,28.8,24.5,28.3,24.5,27.7z M33.2,27.7v-3.6c0-0.6-0.5-1.1-1.1-1.1h-3.6c-0.6,0-1.1,0.5-1.1,1.1v3.6c0,0.6,0.5,1.1,1.1,1.1h3.6
	C32.7,28.8,33.2,28.3,33.2,27.7z M41.8,27.7v-3.6c0-0.6-0.5-1.1-1.1-1.1h-3.6c-0.6,0-1.1,0.5-1.1,1.1v3.6c0,0.6,0.5,1.1,1.1,1.1h3.6
	C41.3,28.8,41.8,28.3,41.8,27.7z M11.5,36.4v-3.6c0-0.6-0.5-1.1-1.1-1.1H6.8c-0.6,0-1.1,0.5-1.1,1.1v3.6c0,0.6,0.5,1.1,1.1,1.1h3.6
	C11,37.5,11.5,37,11.5,36.4z M37.5,36.4v-3.6c0-0.6-0.5-1.1-1.1-1.1H15.5c-0.6,0-1.1,0.5-1.1,1.1v3.6c0,0.6,0.5,1.1,1.1,1.1h20.9
	C37,37.5,37.5,37,37.5,36.4z M46.1,36.4v-3.6c0-0.6-0.5-1.1-1.1-1.1h-3.6c-0.6,0-1.1,0.5-1.1,1.1v3.6c0,0.6,0.5,1.1,1.1,1.1H45
	C45.6,37.5,46.1,37,46.1,36.4z"/>
</svg>
