<?xml version="1.0" encoding="UTF-8"?>
<svg id="Layer_1" data-name="Layer 1" xmlns="http://www.w3.org/2000/svg" viewBox="0 0 51.9 44.11">
  <defs>
    <style>
      .cls-1 {
        fill: #23a9d5;
        stroke-width: 0px;
      }
    </style>
  </defs>
  <path class="cls-1" d="m41,44.11H10.9c-3.21,0-4.98,0-6.65-.85-1.47-.75-2.65-1.93-3.4-3.4-.85-1.67-.85-3.44-.85-6.65V10.9c0-3.21,0-4.98.85-6.65.75-1.47,1.93-2.65,3.4-3.4,1.67-.85,3.44-.85,6.65-.85h30.1c3.21,0,4.98,0,6.65.85,1.47.75,2.65,1.93,3.4,3.4.85,1.66.85,3.43.85,6.65v22.32c0,3.21,0,4.98-.85,6.65-.75,1.47-1.93,2.65-3.4,3.4-1.66.85-3.43.85-6.65.85Zm-22.84-5.19h22.84c2.25,0,3.74,0,4.29-.28.49-.25.88-.64,1.13-1.13.28-.56.28-2.04.28-4.29v-2.08h-28.55v7.79Zm-12.98-7.79v2.08c0,2.25,0,3.74.28,4.29.25.49.64.88,1.13,1.13.56.28,2.04.28,4.29.28h2.08v-7.79h-7.79Zm12.98-5.19h28.55v-7.79h-28.55v7.79Zm-12.98,0h7.79v-7.79h-7.79v7.79Zm12.98-12.98h28.55v-2.08c0-2.25,0-3.74-.28-4.29-.25-.49-.64-.88-1.13-1.13-.55-.28-2.04-.28-4.29-.28h-22.84v7.79Zm-12.98,0h7.79v-7.79h-2.08c-2.25,0-3.74,0-4.29.28-.49.25-.88.64-1.13,1.13-.28.56-.28,2.04-.28,4.29v2.08Z"/>
</svg>