<?xml version="1.0" encoding="utf-8"?>
<!-- Generator: Adobe Illustrator 28.0.0, SVG Export Plug-In . SVG Version: 6.00 Build 0)  -->
<svg version="1.1" id="Layer_1" xmlns="http://www.w3.org/2000/svg" xmlns:xlink="http://www.w3.org/1999/xlink" x="0px" y="0px"
	 viewBox="0 0 1737 257.5" style="enable-background:new 0 0 1737 257.5;" xml:space="preserve">
<style type="text/css">
	.st0{fill:#CCCCB5;}
	.st1{fill:#23A9D5;}
</style>
<g id="Layer_2_00000163032326351685888520000017247936843749143478_">
	<g>
		<g>
			<g>
				<path class="st0" d="M337.3,50.5v20.9h114.3V50.5H337.3L337.3,50.5z M383.2,50.7v155.9H406V50.7H383.2z"/>
				<path class="st0" d="M565.1,50.5l-37.9,78h-1.9l-37.9-78h-24.2l51.9,100.3l1.9,3.7h18.7l2.3-4.4l51.5-99.6L565.1,50.5
					L565.1,50.5z M515.1,129.8v76.8H538v-76.8L515.1,129.8L515.1,129.8z"/>
				<path class="st0" d="M610.1,50.7v155.9h22.8V50.7H610.1z M700.2,63.1c-10.1-8.6-24.9-13-44.5-13h-25.4V71h25.4
					c12.1,0,21.1,2.8,27.2,7.9c6.3,5.3,9.3,13,9.3,23c0,11.6-3.2,20.5-9.3,26.3c-6,6.1-15.1,9.1-27.2,9.1h-25.6v20.9l2.8,0l22.8-0.4
					c19.6,0,34.5-4.7,44.5-14.2s15.1-23.5,15.1-41.9C715.3,84.7,710.2,71.9,700.2,63.1z"/>
				<path class="st0" d="M741.8,50.7v155.9h22.8V50.7H741.8z M741.8,50.5v20.9h103.3V50.5H741.8z M741.8,118v20.9h83.6V118H741.8z
					 M741.8,185.7v20.9h103.3v-20.9L741.8,185.7L741.8,185.7z"/>
			</g>
			<path class="st0" d="M873.1,138.9v-20.5H983v20.5H873.1z"/>
			<g>
				<path class="st0" d="M1012.5,147.8l22.8-0.2c-1.9,4.9-2.8,9.5-2.8,14.2c0,8.8,3,16.3,9.1,22.3c6.1,6.1,13.5,9.1,22.1,9.1
					s16.1-3,22.3-9.5c6.3-6.3,9.5-13.7,9.5-22.3s-3-16.3-9.3-22.3c-6.1-6.1-13.7-9.1-22.3-9.1c-4.7,0-9.5,0.9-14.2,2.6l-0.2-22.8
					c4.9-1.2,9.8-1.6,14.2-1.6c6.7,0,13.5,1.4,20.2,4c6.1-5.8,9.1-12.8,9.1-20.9s-2.6-14.4-7.9-19.6c-5.4-5.1-11.9-7.7-19.8-7.7
					s-14.7,2.8-19.6,8.1c-4.9,5.6-7.4,12.3-7.7,20.7l-21.6-0.2c0.2-14.2,4.9-26.1,13.7-35.8c9.1-9.8,20.5-14.7,34.2-14.7
					s25.1,4.9,35.1,14.7c9.8,9.8,14.9,21.4,14.9,34.9c0,11.6-4.2,22.6-12.6,32.8c3.5,4,6.5,8.4,9.1,12.8h37.9V64.2h-21.6V48.6h69.1
					v15.6H1172v146.2h-23.3v-54.9h-32.1v5.4c0,14.9-5.4,27.7-16.3,38.4c-10.7,10.7-23.5,16.3-38.4,16.3s-26.8-5.1-37-15.6
					s-15.4-23-15.4-37.5C1010.9,157.1,1011.6,152.4,1012.5,147.8L1012.5,147.8z"/>
				<path class="st0" d="M1249,64h-26.3v146.9h-23.3V64h-13.7V48.4h63.3V64L1249,64z"/>
				<path class="st0" d="M1391.9,64h-37.5c2.3,3,4.9,8.4,7,15.8s3.3,13.5,3.3,17.9c0,32.8-15.8,53.1-47.2,60.7l64.5,52.1h-33.7
					l-94.7-76.6l15.8-15.4l16.1,13.3c6.3,4.4,12.6,6.5,19.1,6.5c11.2,0,20.5-3.7,27.7-10.9s10.7-16.5,10.7-27.7
					c0-15.8-6.5-27.9-19.8-35.6h-79.8V48.5h149L1391.9,64C1391.9,64,1391.9,64,1391.9,64z"/>
				<path class="st0" d="M1546.9,64h-40.5v41.2h27.7v18.9h-27.7v31.7c0,15.1-5.4,28.2-16.1,38.6c-10.7,10.5-23.7,15.8-38.9,15.8
					s-28.2-5.4-38.6-15.6c-10.5-10.5-15.8-23-15.8-38.2s5.4-28.6,15.8-39.6c10.5-10.9,23.5-16.3,38.6-16.3c8.4,0,16.5,2.1,24.9,6.1
					v29.1c-6.3-7.7-14.2-11.4-24-11.4c-9.1,0-16.5,3-22.8,9.1c-6.1,6.1-9.3,13.7-9.3,22.6s2.8,16.8,8.8,22.3
					c5.8,5.8,13.5,8.6,22.6,8.6s16.8-2.8,22.6-8.6s8.8-13.3,8.8-22.3V64.3h-97.1V48.7h160.6v15.4h0.4V64L1546.9,64z"/>
				<path class="st0" d="M1736.6,63.3h-26.5v146.9h-23.5v-86.4h-27.7v31.9c0,15.1-5.4,28.2-16.1,38.6
					c-10.7,10.5-23.7,15.8-38.9,15.8s-28.2-5.4-38.6-15.6c-10.5-10.5-15.8-23-15.8-38.2s5.4-28.6,15.8-39.6
					c10.5-10.9,23.5-16.3,38.6-16.3c8.4,0,16.5,2.1,24.9,6.1v29.1c-6.3-7.7-14.4-11.4-24.2-11.4c-8.6,0-16.1,3-22.3,9.1
					s-9.5,13.3-9.5,21.9s3.3,16.1,9.8,22.6s14,9.8,22.6,9.8s15.6-3.3,21.6-9.5c6.1-6.3,9.1-13.7,9.1-22.1V97.1
					c0-9.5-2.3-17.2-7-23.3c-5.4-6.7-12.8-10-21.9-10c-14.2,0-23.3,6.5-27.7,19.8V53.1c9.8-5.4,20.9-8.1,33.3-8.1
					c31.2,0,46.6,20.2,46.6,60.7h27.7V63.8h-21.6V48.9h71.7v14.4C1737,63.3,1736.6,63.3,1736.6,63.3z"/>
			</g>
		</g>
		<g>
			<polygon class="st1" points="45.1,37.2 8,0 249.5,0 212.4,37.2 			"/>
			<polygon class="st1" points="37.2,212.3 0,249.6 0,7.9 37.2,45.1 			"/>
			<polygon class="st1" points="249.6,257.5 7.9,257.5 45.1,220.3 212.4,220.3 			"/>
			<polygon class="st1" points="257.5,7.9 257.5,249.6 220.3,212.3 220.3,45.1 			"/>
			<path class="st1" d="M48.3,48.3v160.8h160.8V48.3H48.3z M148.2,104.6h-11.8l0.2,49.4v10.3h-11.4v-10.3l0.1-14.9
				c-1,0.1-1.5,0.1-2.3,0.1c-3.5,0-7.4-1.2-10-2.9l-0.5,0.3c0.3,1.6,0.5,3.1,0.5,4.9c0,9.1-7.4,16.1-17.6,16.1
				c-13.5,0-24.2-11.6-33.8-30.4l0.1-0.5l4.8-3.4c7.8,14.1,13.5,22.2,24.5,22.2c5.8,0,12.6-4.3,12.6-10.8c0-3.5-1.9-5.7-6.6-5.7
				c-3.3,0-7.5,1.2-12.4,3.1l-6.7-10.5l0.3-1.2c4.8-1.7,9.5-3.1,14.3-3.8c4.5-1.8,6.9-4.6,6.9-7.6c0-2.4-1-4.7-6.1-4.7
				c-4.2,0-9.3,2-15.5,5.7l-6.7-10.2l0.2-1c4.8-3.5,10.1-5.7,15.3-5.7c7.7,0,12.4,3.2,17.2,10c2.9,4.2,4.3,7.8,4.3,12
				c0,2.9-1.2,6-3.4,8.8c1,1,1.9,2,2.9,3.2c1.2,1.2,4,1.4,6.8,1.4c3.7,0,7.4-1.2,10.7-3.1v-20.9h-12V94.2l35.1,0.1L148.2,104.6
				L148.2,104.6z M195.9,87.8h-17.3l0.2,81.9h17.1v7.8H179l-1.3-0.3c-0.1,0-0.2,0-0.2-0.1c-1.6-0.6-2.7-2-2.7-3.5
				c0,1-0.5,1.9-1.1,2.6c-1,0.7-2.1,1.2-3.4,1.2h-16.4v-7.7H171l0.1-81.9h-17.2v-7.8h16.9l1.3,0.3c0.1,0,0.2,0,0.2,0.1
				c1.6,0.6,2.7,2,2.7,3.5c0-1,0.5-1.9,1.1-2.6c1-0.7,2.1-1.2,3.4-1.2h16.4L195.9,87.8L195.9,87.8z"/>
		</g>
	</g>
</g>
</svg>
