<?xml version="1.0" encoding="UTF-8"?>
<svg id="Layer_1" data-name="Layer 1" xmlns="http://www.w3.org/2000/svg" viewBox="0 0 1838.3 378.2">
  <defs>
    <style>
      .cls-1 {
        fill: #23a9d5;
      }

      .cls-1, .cls-2 {
        stroke-width: 0px;
      }

      .cls-2 {
        fill: #ccccb5;
      }
    </style>
  </defs>
  <g id="Layer_2" data-name="Layer 2">
    <g>
      <g>
        <g>
          <path class="cls-2" d="m438.6,110.9v20.9h114.3v-20.9h-114.3Zm45.9.2v155.9h22.8V111.1h-22.8Z"/>
          <path class="cls-2" d="m666.4,110.9l-37.9,78h-1.9l-37.9-78h-24.2l51.9,100.33,1.9,3.67h18.7l2.3-4.45,51.5-99.55h-24.4Zm-50,79.3v76.8h22.9v-76.8h-22.9Z"/>
          <path class="cls-2" d="m711.4,111.1v155.9h22.8V111.1h-22.8Zm90.1,12.4c-10.1-8.6-24.9-13-44.5-13h-25.4v20.9h25.4c12.1,0,21.1,2.8,27.2,7.9,6.3,5.3,9.3,13,9.3,23,0,11.6-3.2,20.5-9.3,26.3-6,6.1-15.1,9.1-27.2,9.1h-25.6v20.9l2.8-.04,22.8-.36c19.6,0,34.5-4.7,44.5-14.2,10-9.5,15.1-23.5,15.1-41.9,0-17-5.1-29.8-15.1-38.6Z"/>
          <path class="cls-2" d="m843.1,111.1v155.9h22.8V111.1h-22.8Zm0-.2v20.9h103.3v-20.9h-103.3Zm0,67.5v20.9h83.6v-20.9h-83.6Zm0,67.7v20.9h103.3v-20.9h-103.3Z"/>
        </g>
        <path class="cls-2" d="m974.4,199.3v-20.5h109.9v20.5h-109.9Z"/>
        <g>
          <path class="cls-2" d="m1113.8,208.2l22.8-.2c-1.9,4.9-2.8,9.5-2.8,14.2,0,8.8,3,16.3,9.1,22.3,6.1,6.1,13.5,9.1,22.1,9.1s16.1-3,22.3-9.5c6.3-6.3,9.5-13.7,9.5-22.3s-3-16.3-9.3-22.3c-6.1-6.1-13.7-9.1-22.3-9.1-4.7,0-9.5.9-14.2,2.6l-.2-22.8c4.9-1.2,9.8-1.6,14.2-1.6,6.7,0,13.5,1.4,20.2,4,6.1-5.8,9.1-12.8,9.1-20.9s-2.6-14.4-7.9-19.6c-5.4-5.1-11.9-7.7-19.8-7.7s-14.7,2.8-19.6,8.1c-4.9,5.6-7.4,12.3-7.7,20.7l-21.6-.2c.2-14.2,4.9-26.1,13.7-35.8,9.1-9.8,20.5-14.7,34.2-14.7s25.1,4.9,35.1,14.7c9.8,9.8,14.9,21.4,14.9,34.9,0,11.6-4.2,22.6-12.6,32.8,3.5,4,6.5,8.4,9.1,12.8h37.9v-73.1h-21.6v-15.6h69.1v15.6h-24.2v146.2h-23.3v-54.9h-32.1v5.4c0,14.9-5.4,27.7-16.3,38.4-10.7,10.7-23.5,16.3-38.4,16.3s-26.8-5.1-37-15.6-15.4-23-15.4-37.5c1.4-5.4,2.1-10.1,3-14.7Z"/>
          <path class="cls-2" d="m1350.3,124.4h-26.3v146.9h-23.3V124.4h-13.7v-15.6h63.3v15.6h0Z"/>
          <path class="cls-2" d="m1493.2,124.4h-37.5c2.3,3,4.9,8.4,7,15.8s3.3,13.5,3.3,17.9c0,32.8-15.8,53.1-47.2,60.7l64.5,52.1h-33.7l-94.7-76.6,15.8-15.4,16.1,13.3c6.3,4.4,12.6,6.5,19.1,6.5,11.2,0,20.5-3.7,27.7-10.9,7.2-7.2,10.7-16.5,10.7-27.7,0-15.8-6.5-27.9-19.8-35.6h-79.8v-15.6h149l-.5,15.5h0Z"/>
          <path class="cls-2" d="m1648.2,124.4h-40.5v41.2h27.7v18.9h-27.7v31.7c0,15.1-5.4,28.2-16.1,38.6-10.7,10.5-23.7,15.8-38.9,15.8s-28.2-5.4-38.6-15.6c-10.5-10.5-15.8-23-15.8-38.2s5.4-28.6,15.8-39.6c10.5-10.9,23.5-16.3,38.6-16.3,8.4,0,16.5,2.1,24.9,6.1v29.1c-6.3-7.7-14.2-11.4-24-11.4-9.1,0-16.5,3-22.8,9.1-6.1,6.1-9.3,13.7-9.3,22.6s2.8,16.8,8.8,22.3c5.8,5.8,13.5,8.6,22.6,8.6s16.8-2.8,22.6-8.6,8.8-13.3,8.8-22.3v-91.7h-97.1v-15.6h160.6v15.4h.4v-.1Z"/>
          <path class="cls-2" d="m1837.9,123.7h-26.5v146.9h-23.5v-86.4h-27.7v31.9c0,15.1-5.4,28.2-16.1,38.6-10.7,10.5-23.7,15.8-38.9,15.8s-28.2-5.4-38.6-15.6c-10.5-10.5-15.8-23-15.8-38.2s5.4-28.6,15.8-39.6c10.5-10.9,23.5-16.3,38.6-16.3,8.4,0,16.5,2.1,24.9,6.1v29.1c-6.3-7.7-14.4-11.4-24.2-11.4-8.6,0-16.1,3-22.3,9.1s-9.5,13.3-9.5,21.9,3.3,16.1,9.8,22.6,14,9.8,22.6,9.8,15.6-3.3,21.6-9.5c6.1-6.3,9.1-13.7,9.1-22.1v-58.9c0-9.5-2.3-17.2-7-23.3-5.4-6.7-12.8-10-21.9-10-14.2,0-23.3,6.5-27.7,19.8v-30.5c9.8-5.4,20.9-8.1,33.3-8.1,31.2,0,46.6,20.2,46.6,60.7h27.7v-41.9h-21.6v-14.9h71.7v14.4h-.4Z"/>
        </g>
      </g>
      <g>
        <polygon class="cls-1" points="66.2 54.6 11.7 0 366.5 0 312 54.6 66.2 54.6"/>
        <polygon class="cls-1" points="54.6 311.9 0 366.6 0 11.6 54.6 66.2 54.6 311.9"/>
        <polygon class="cls-1" points="366.6 378.2 11.6 378.2 66.2 323.6 312 323.6 366.6 378.2"/>
        <polygon class="cls-1" points="378.2 11.6 378.2 366.6 323.6 311.9 323.6 66.2 378.2 11.6"/>
        <path class="cls-1" d="m71,71v236.2h236.2V71H71Zm146.7,82.6h-17.4l.3,72.5v15.1h-16.8v-15.1l.2-21.9c-1.4.2-2.2.2-3.4.2-5.2,0-10.8-1.7-14.7-4.2l-.8.4c.5,2.4.8,4.5.8,7.2,0,13.3-10.8,23.7-25.9,23.7-19.9,0-35.5-17.1-49.6-44.7l.2-.8,7.1-5c11.5,20.7,19.9,32.6,36,32.6,8.5,0,18.5-6.3,18.5-15.8,0-5.2-2.8-8.4-9.7-8.4-4.9,0-11,1.8-18.2,4.6l-9.8-15.4.5-1.8c7-2.5,14-4.5,21-5.6,6.6-2.7,10.1-6.7,10.1-11.2,0-3.5-1.5-6.9-9-6.9-6.2,0-13.7,3-22.7,8.4l-9.8-15,.3-1.4c7.1-5.2,14.8-8.4,22.5-8.4,11.3,0,18.2,4.7,25.3,14.7,4.3,6.2,6.3,11.4,6.3,17.7,0,4.3-1.7,8.8-5,13,1.5,1.5,2.8,3,4.2,4.7,1.7,1.8,5.9,2.1,10,2.1,5.5,0,10.8-1.8,15.7-4.6v-30.7h-17.7v-15.2l51.5.1v15.1Zm70-24.6h-25.4l.3,120.3h25.1v11.4h-24.8l-1.9-.5c-.1,0-.3,0-.3-.1-2.3-.9-3.9-2.9-3.9-5.1,0,1.5-.7,2.8-1.6,3.8-1.4,1.1-3.1,1.8-5,1.8h-24.1v-11.3h25.1l.2-120.3h-25.3v-11.4h24.8l1.9.5c.2,0,.3,0,.3.1,2.3.9,3.9,2.9,3.9,5.1,0-1.5.7-2.8,1.6-3.8,1.4-1.1,3.1-1.8,5-1.8h24.1v11.3Z"/>
      </g>
    </g>
  </g>
</svg>